<svg width="67" height="41" viewBox="0 0 67 41" fill="none" xmlns="http://www.w3.org/2000/svg">
<path d="M16.9994 0.479004C14.3472 0.479004 11.8037 1.53257 9.92832 3.40794C8.05296 5.2833 6.99939 7.82684 6.99939 10.479H60.3327C60.3327 7.82684 59.2792 5.2833 57.4038 3.40794C55.5284 1.53257 52.9849 0.479004 50.3327 0.479004H16.9994Z" fill="#FCC690"/>
<path d="M16.9994 40.479C14.3472 40.479 11.8037 39.4254 9.92832 37.5501C8.05296 35.6747 6.99939 33.1312 6.99939 30.479H60.3327C60.3327 33.1312 59.2792 35.6747 57.4038 37.5501C55.5284 39.4254 52.9849 40.479 50.3327 40.479H16.9994Z" fill="#FCC690"/>
<path d="M3.66671 17.147C2.78265 17.147 1.93481 17.4982 1.30968 18.1233C0.684563 18.7484 0.333374 19.5963 0.333374 20.4803C0.333374 21.3644 0.684563 22.2122 1.30968 22.8373C1.93481 23.4625 2.78265 23.8136 3.66671 23.8136H63.6667C64.5508 23.8136 65.3986 23.4625 66.0237 22.8373C66.6488 22.2122 67 21.3644 67 20.4803C67 19.5963 66.6488 18.7484 66.0237 18.1233C65.3986 17.4982 64.5508 17.147 63.6667 17.147H3.66671Z" fill="#F57751"/>
</svg>
