<svg width="31" height="31" viewBox="0 0 31 31" fill="none" xmlns="http://www.w3.org/2000/svg">
<path d="M11.7501 20.5866L7.41256 16.2491C7.17884 16.0153 6.86184 15.884 6.53131 15.884C6.20078 15.884 5.88378 16.0153 5.65006 16.2491C5.41634 16.4828 5.28503 16.7998 5.28503 17.1303C5.28503 17.294 5.31727 17.456 5.3799 17.6072C5.44253 17.7584 5.53433 17.8958 5.65006 18.0116L10.8751 23.2366C11.3626 23.7241 12.1501 23.7241 12.6376 23.2366L25.8626 10.0116C26.0963 9.77784 26.2276 9.46084 26.2276 9.13031C26.2276 8.79978 26.0963 8.48278 25.8626 8.24906C25.6288 8.01534 25.3118 7.88403 24.9813 7.88403C24.6508 7.88403 24.3338 8.01534 24.1001 8.24906L11.7501 20.5866Z" fill="black"/>
</svg>
