<svg width="139" height="139" viewBox="0 0 139 139" fill="none" xmlns="http://www.w3.org/2000/svg">
<g clip-path="url(#clip0_55_358)">
<path d="M69.5 137.636C65.7753 137.635 62.0568 137.334 58.3803 136.737L68.6709 73.8236H68.8491L69.5233 69.1123L70.1509 72.2119L82.0068 136.528C77.8804 137.278 73.694 137.649 69.5 137.636Z" stroke="#F9F9F9" stroke-width="1.54978" stroke-miterlimit="10"/>
<path d="M35.893 128.856C28.9678 124.968 22.7718 119.905 17.5823 113.893L65.7495 72.1654L65.8348 72.2584L69.4458 68.9961L68.0354 71.6385L35.893 128.856Z" stroke="#F9F9F9" stroke-width="1.54978" stroke-miterlimit="10"/>
<path d="M104.285 128.182L71.9951 73.2194C72.0467 73.1956 72.0961 73.1671 72.1424 73.1341L69.6007 69.0117L70.7941 69.9648L122.324 112.871C117.24 118.978 111.137 124.158 104.285 128.182Z" stroke="#F9F9F9" stroke-width="1.54978" stroke-miterlimit="10"/>
<path d="M5.33895 93.56C2.47933 86.1166 0.94006 78.2314 0.790344 70.259L64.5097 69.0114V69.0889L69.4458 68.9185L5.33895 93.56Z" stroke="#F9F9F9" stroke-width="1.54978" stroke-miterlimit="10"/>
<path d="M134.134 92.2817L74.1881 70.5847V70.484L69.5388 68.9342L74.4826 68.8335V68.6707L138.163 66.1523C138.202 67.0512 138.217 67.9656 138.217 68.8722C138.229 76.8536 136.847 84.7757 134.134 92.2817Z" stroke="#F9F9F9" stroke-width="1.54978" stroke-miterlimit="10"/>
<path d="M69.5465 68.8873V68.8253V68.8795L70.3214 68.1589L73.2273 65.6405L73.173 65.5785L120.511 22.8975C125.846 28.8108 130.112 35.6072 133.119 42.9827L70.3524 68.5541L69.5465 68.8873Z" stroke="#F9F9F9" stroke-width="1.54978" stroke-miterlimit="10"/>
<path d="M69.4458 68.8801L64.8506 67.2141V67.3071L4.40912 46.8345C6.96604 39.2803 10.8236 32.2312 15.8077 26.0054L69.4458 68.8801Z" stroke="#F9F9F9" stroke-width="1.54978" stroke-miterlimit="10"/>
<path d="M69.4303 68.7248L66.9506 64.6256L33.576 10.3212C40.3823 6.13242 47.8698 3.16884 55.6991 1.56494L69.4303 68.7248Z" stroke="#F9F9F9" stroke-width="1.54978" stroke-miterlimit="10"/>
<path d="M69.5697 68.7095L70.2594 63.9749L79.2946 0.875488C87.2109 2.00613 94.8669 4.51881 101.914 8.29895L69.5697 68.7095Z" stroke="#F9F9F9" stroke-width="1.54978" stroke-miterlimit="10"/>
</g>
<defs>
<clipPath id="clip0_55_358">
<rect width="139" height="138.403" fill="white"/>
</clipPath>
</defs>
</svg>
