<svg width="54" height="54" viewBox="0 0 54 54" fill="none" xmlns="http://www.w3.org/2000/svg">
<path d="M37.1295 20.1434C37.362 19.9267 37.5495 19.6662 37.6814 19.377C37.8133 19.0877 37.8869 18.7753 37.898 18.4576C37.9091 18.1399 37.8575 17.8231 37.7462 17.5254C37.6349 17.2276 37.4661 16.9547 37.2493 16.7221C37.0325 16.4896 36.7721 16.3021 36.4828 16.1702C36.1936 16.0384 35.8812 15.9648 35.5635 15.9537C35.2458 15.9425 34.929 15.9941 34.6312 16.1054C34.3334 16.2167 34.0605 16.3855 33.828 16.6023L26.7457 23.2053L20.1427 16.1207C19.7009 15.6681 19.0996 15.4065 18.4673 15.3918C17.835 15.377 17.2221 15.6103 16.7597 16.0418C16.2973 16.4732 16.0221 17.0685 15.993 17.7002C15.9639 18.332 16.1832 18.9501 16.604 19.4222L23.207 26.5044L16.1224 33.1074C15.8816 33.322 15.6862 33.5825 15.5476 33.8737C15.409 34.1648 15.3299 34.4808 15.3151 34.8029C15.3002 35.125 15.3499 35.4469 15.4612 35.7496C15.5725 36.0522 15.7432 36.3296 15.9631 36.5654C16.1831 36.8012 16.448 36.9907 16.7423 37.1226C17.0365 37.2546 17.3541 37.3265 17.6765 37.334C17.9989 37.3415 18.3196 37.2846 18.6196 37.1664C18.9197 37.0483 19.1931 36.8714 19.4239 36.6461L26.5061 30.0455L33.1091 37.1278C33.3223 37.373 33.5827 37.5727 33.8747 37.7151C34.1668 37.8575 34.4845 37.9396 34.809 37.9566C35.1334 37.9736 35.458 37.9251 35.7633 37.814C36.0686 37.7029 36.3484 37.5315 36.5861 37.3099C36.8237 37.0883 37.0144 36.8212 37.1466 36.5244C37.2788 36.2276 37.3499 35.9073 37.3556 35.5824C37.3614 35.2575 37.3017 34.9348 37.1801 34.6336C37.0585 34.3323 36.8775 34.0585 36.6478 33.8287L30.0472 26.7464L37.1295 20.1434Z" fill="#F57751"/>
<path fill-rule="evenodd" clip-rule="evenodd" d="M0 26.625C0 11.9207 11.9207 0 26.625 0C41.3293 0 53.25 11.9207 53.25 26.625C53.25 41.3293 41.3293 53.25 26.625 53.25C11.9207 53.25 0 41.3293 0 26.625ZM26.625 48.4091C23.7643 48.4091 20.9316 47.8456 18.2886 46.7509C15.6456 45.6561 13.2442 44.0515 11.2213 42.0287C9.19848 40.0058 7.59388 37.6044 6.49912 34.9614C5.40437 32.3184 4.84091 29.4857 4.84091 26.625C4.84091 23.7643 5.40437 20.9316 6.49912 18.2886C7.59388 15.6456 9.19848 13.2442 11.2213 11.2213C13.2442 9.19848 15.6456 7.59388 18.2886 6.49912C20.9316 5.40437 23.7643 4.84091 26.625 4.84091C32.4025 4.84091 37.9434 7.13601 42.0287 11.2213C46.114 15.3066 48.4091 20.8475 48.4091 26.625C48.4091 32.4025 46.114 37.9434 42.0287 42.0287C37.9434 46.114 32.4025 48.4091 26.625 48.4091Z" fill="#FCC690"/>
</svg>
