<svg width="19" height="19" viewBox="0 0 19 19" fill="none" xmlns="http://www.w3.org/2000/svg">
<path d="M10.0904 17.7936C10.0904 18.3404 9.64716 18.7836 9.10042 18.7836C8.55369 18.7836 8.11047 18.3404 8.11047 17.7936L8.11047 11.864C8.11047 11.3117 7.66276 10.864 7.11047 10.864L1.18083 10.864C0.634092 10.864 0.190877 10.4208 0.190877 9.87402C0.190877 9.32729 0.634093 8.88407 1.18083 8.88407L7.11047 8.88407C7.66276 8.88407 8.11047 8.43636 8.11047 7.88407L8.11047 1.95443C8.11047 1.40769 8.55369 0.964478 9.10042 0.964478C9.64716 0.964478 10.0904 1.40769 10.0904 1.95443L10.0904 7.88407C10.0904 8.43636 10.5381 8.88407 11.0904 8.88407H17.02C17.5668 8.88407 18.01 9.32729 18.01 9.87402C18.01 10.4208 17.5668 10.864 17.02 10.864H11.0904C10.5381 10.864 10.0904 11.3117 10.0904 11.864L10.0904 17.7936Z" fill="#964E71"/>
</svg>
