<svg width="24" height="25" viewBox="0 0 24 25" fill="none" xmlns="http://www.w3.org/2000/svg">
<path d="M22 7.90894V17.3739C22 18.1391 21.7077 18.8755 21.1827 19.4322C20.6578 19.9889 19.9399 20.324 19.176 20.3689L19 20.3739H5C4.23479 20.374 3.49849 20.0816 2.94174 19.5567C2.38499 19.0317 2.04989 18.3138 2.005 17.5499L2 17.3739V7.90894L11.445 14.2059L11.561 14.2719C11.6977 14.3387 11.8478 14.3734 12 14.3734C12.1522 14.3734 12.3023 14.3387 12.439 14.2719L12.555 14.2059L22 7.90894Z" fill="#23A0DD"/>
<path d="M18.9999 4.37402C20.0799 4.37402 21.0269 4.94402 21.5549 5.80102L11.9999 12.171L2.44495 5.80102C2.69568 5.39379 3.04016 5.05242 3.44965 4.80541C3.85915 4.55839 4.32178 4.41288 4.79895 4.38102L4.99995 4.37402H18.9999Z" fill="#23A0DD"/>
</svg>
