<svg width="36" height="36" viewBox="0 0 36 36" fill="none" xmlns="http://www.w3.org/2000/svg">
<path d="M30.7711 3.54443H4.73173C4.30495 3.54443 3.89565 3.71397 3.59387 4.01575C3.2921 4.31753 3.12256 4.72683 3.12256 5.15361V31.193C3.12256 31.6197 3.2921 32.029 3.59387 32.3308C3.89565 32.6326 4.30495 32.8021 4.73173 32.8021H18.7462V21.4648H14.9427V17.0761H18.7462V13.7846C18.6674 13.0119 18.7586 12.2312 19.0135 11.4975C19.2683 10.7637 19.6806 10.0946 20.2214 9.53701C20.7623 8.97946 21.4185 8.54698 22.1442 8.2699C22.8699 7.99283 23.6474 7.87787 24.4222 7.93309C25.5608 7.92608 26.6988 7.98469 27.8307 8.10863V12.0584H25.5047C23.6615 12.0584 23.3104 12.9362 23.3104 14.2089V17.0322H27.699L27.1285 21.4209H23.3104V32.8021H30.7711C30.9824 32.8021 31.1917 32.7605 31.3869 32.6796C31.5821 32.5988 31.7595 32.4802 31.9089 32.3308C32.0584 32.1814 32.1769 32.004 32.2578 31.8088C32.3386 31.6135 32.3803 31.4043 32.3803 31.193V5.15361C32.3803 4.94229 32.3386 4.73304 32.2578 4.5378C32.1769 4.34257 32.0584 4.16518 31.9089 4.01575C31.7595 3.86632 31.5821 3.74779 31.3869 3.66692C31.1917 3.58606 30.9824 3.54443 30.7711 3.54443Z" fill="#23A0DD"/>
</svg>
