<svg width="36" height="36" viewBox="0 0 36 36" fill="none" xmlns="http://www.w3.org/2000/svg">
<path d="M19.6222 3.54575C20.6897 3.54165 21.7572 3.55238 22.8244 3.57793L23.1082 3.58817C23.4359 3.59987 23.7592 3.6145 24.1498 3.63206C25.7063 3.7052 26.7684 3.95096 27.7002 4.3123C28.6657 4.68387 29.4791 5.1871 30.2925 6.00047C31.0362 6.73133 31.6117 7.61541 31.9792 8.59124C32.3405 9.52309 32.5863 10.5866 32.6594 12.1431C32.677 12.5322 32.6916 12.857 32.7033 13.1847L32.7121 13.4685C32.7381 14.5352 32.7493 15.6023 32.7457 16.6693L32.7472 17.7606V19.677C32.7508 20.7445 32.7396 21.812 32.7135 22.8792L32.7048 23.163C32.6931 23.4907 32.6784 23.814 32.6609 24.2046C32.5877 25.7611 32.3391 26.8232 31.9792 27.755C31.6129 28.7319 31.0372 29.6167 30.2925 30.3473C29.561 31.0909 28.6764 31.6664 27.7002 32.034C26.7684 32.3953 25.7063 32.6411 24.1498 32.7142C23.7592 32.7318 23.4359 32.7464 23.1082 32.7581L22.8244 32.7669C21.7572 32.7929 20.6897 32.8041 19.6222 32.8005L18.5309 32.802H16.616C15.5484 32.8056 14.4809 32.7944 13.4137 32.7683L13.1299 32.7596C12.7826 32.747 12.4354 32.7323 12.0883 32.7157C10.5318 32.6425 9.46977 32.3938 8.53645 32.034C7.56024 31.6673 6.676 31.0916 5.94568 30.3473C5.20113 29.6162 4.62502 28.7316 4.25751 27.755C3.89617 26.8232 3.65041 25.7611 3.57726 24.2046C3.56097 23.8575 3.54634 23.5103 3.53338 23.163L3.52606 22.8792C3.49909 21.812 3.4869 20.7445 3.48949 19.677V16.6693C3.48541 15.6023 3.49614 14.5352 3.52168 13.4685L3.53192 13.1847C3.54362 12.857 3.55825 12.5322 3.5758 12.1431C3.64895 10.5851 3.89471 9.52456 4.25604 8.59124C4.62377 7.61494 5.20101 6.7311 5.94714 6.00193C6.67696 5.25696 7.56064 4.68032 8.53645 4.3123C9.46977 3.95096 10.5304 3.7052 12.0883 3.63206L13.1299 3.58817L13.4137 3.58085C14.4804 3.5539 15.5474 3.54171 16.6145 3.54428L19.6222 3.54575ZM18.1183 10.8602C17.1492 10.8465 16.187 11.0255 15.2876 11.3869C14.3883 11.7483 13.5697 12.2848 12.8795 12.9653C12.1893 13.6458 11.6413 14.4567 11.2672 15.3509C10.8931 16.245 10.7005 17.2046 10.7005 18.1739C10.7005 19.1431 10.8931 20.1027 11.2672 20.9969C11.6413 21.891 12.1893 22.7019 12.8795 23.3824C13.5697 24.0629 14.3883 24.5994 15.2876 24.9608C16.187 25.3222 17.1492 25.5013 18.1183 25.4876C20.0582 25.4876 21.9187 24.7169 23.2904 23.3452C24.6621 21.9735 25.4328 20.113 25.4328 18.1731C25.4328 16.2332 24.6621 14.3728 23.2904 13.0011C21.9187 11.6293 20.0582 10.8602 18.1183 10.8602ZM18.1183 13.7859C18.7013 13.7752 19.2806 13.8807 19.8223 14.0964C20.364 14.312 20.8574 14.6335 21.2735 15.0419C21.6896 15.4503 22.0201 15.9376 22.2458 16.4752C22.4715 17.0128 22.5878 17.5901 22.5878 18.1731C22.5879 18.7562 22.4719 19.3334 22.2464 19.8711C22.0209 20.4088 21.6905 20.8962 21.2745 21.3048C20.8585 21.7134 20.3653 22.035 19.8237 22.2508C19.282 22.4666 18.7028 22.5723 18.1198 22.5618C16.9559 22.5618 15.8396 22.0994 15.0166 21.2764C14.1935 20.4534 13.7312 19.3371 13.7312 18.1731C13.7312 17.0092 14.1935 15.8929 15.0166 15.0699C15.8396 14.2469 16.9559 13.7845 18.1198 13.7845L18.1183 13.7859ZM25.7985 8.66584C25.3266 8.68473 24.8802 8.8855 24.553 9.22609C24.2258 9.56668 24.043 10.0207 24.043 10.493C24.043 10.9653 24.2258 11.4193 24.553 11.7599C24.8802 12.1005 25.3266 12.3012 25.7985 12.3201C26.2835 12.3201 26.7486 12.1275 27.0915 11.7845C27.4344 11.4416 27.6271 10.9765 27.6271 10.4915C27.6271 10.0065 27.4344 9.54143 27.0915 9.1985C26.7486 8.85557 26.2835 8.66292 25.7985 8.66292V8.66584Z" fill="#23A0DD"/>
</svg>
