<svg width="60" height="61" viewBox="0 0 60 61" fill="none" xmlns="http://www.w3.org/2000/svg">
<g clip-path="url(#clip0_34_868)">
<path d="M30 0.479004C13.4314 0.479004 0 13.9105 0 30.479C0 47.0476 13.4314 60.479 30 60.479C46.5686 60.479 60 47.0476 60 30.479C60 13.9105 46.5686 0.479004 30 0.479004ZM19.2188 12.3955C19.8369 12.3591 20.3955 12.7285 20.8191 13.3843L24.9207 21.1626C25.3525 22.0843 25.1071 23.0712 24.4629 23.7297L22.5842 25.6084C22.4683 25.7673 22.392 25.9462 22.3902 26.143C23.1106 28.9318 25.296 31.5042 27.2242 33.2732C29.1523 35.0422 31.2247 37.4372 33.9148 38.0046C34.2473 38.0974 34.6547 38.1306 34.8926 37.9095L37.0752 35.6866C37.8286 35.1155 38.9185 34.8388 39.7229 35.3057H39.7595L47.1605 39.6746C48.247 40.3556 48.3595 41.6718 47.5817 42.4725L42.4841 47.5298C41.7313 48.3018 40.7313 48.5614 39.7596 48.5625C35.4622 48.4338 31.4017 46.3246 28.0665 44.157C22.592 40.1744 17.5704 35.2347 14.4178 29.2669C13.2087 26.7644 11.7883 23.5714 11.9239 20.7782C11.936 19.7274 12.2202 18.6979 12.9602 18.0206L18.0579 12.923C18.455 12.5851 18.8479 12.4174 19.2188 12.3955Z" fill="#FCC690"/>
</g>
<defs>
<clipPath id="clip0_34_868">
<rect width="60" height="60" fill="white" transform="translate(0 0.479004)"/>
</clipPath>
</defs>
</svg>
