<svg width="31" height="31" viewBox="0 0 31 31" fill="none" xmlns="http://www.w3.org/2000/svg">
<g clip-path="url(#clip0_34_1376)">
<path d="M15.5 0.874023C7.21572 0.874023 0.5 7.58975 0.5 15.874C0.5 24.1583 7.21572 30.874 15.5 30.874C23.7843 30.874 30.5 24.1583 30.5 15.874C30.5 7.58975 23.7843 0.874023 15.5 0.874023ZM10.1094 6.83227C10.4184 6.81405 10.6978 6.99877 10.9095 7.32665L12.9603 11.2158C13.1763 11.6766 13.0535 12.1701 12.7315 12.4994L11.7921 13.4387C11.7341 13.5181 11.696 13.6076 11.6951 13.706C12.0553 15.1004 13.148 16.3866 14.1121 17.2711C15.0762 18.1556 16.1123 19.3531 17.4574 19.6368C17.6237 19.6832 17.8273 19.6998 17.9463 19.5892L19.0376 18.4778C19.4143 18.1923 19.9593 18.0539 20.3615 18.2874H20.3798L24.0803 20.4718C24.6235 20.8123 24.6798 21.4704 24.2908 21.8707L21.7421 24.3994C21.3657 24.7854 20.8656 24.9152 20.3798 24.9158C18.2311 24.8514 16.2009 23.7968 14.5333 22.713C11.796 20.7217 9.28518 18.2519 7.70888 15.2679C7.10433 14.0167 6.39415 12.4202 6.46193 11.0236C6.46798 10.4982 6.61012 9.98347 6.98012 9.64482L9.52895 7.096C9.7275 6.92705 9.92393 6.84322 10.1094 6.83227Z" fill="#23A0DD"/>
</g>
<defs>
<clipPath id="clip0_34_1376">
<rect width="30" height="30" fill="white" transform="translate(0.5 0.874023)"/>
</clipPath>
</defs>
</svg>
