<svg width="40" height="40" viewBox="0 0 40 40" fill="none" xmlns="http://www.w3.org/2000/svg">
<path fill-rule="evenodd" clip-rule="evenodd" d="M30.0068 2.67909C33.0676 4.4656 35.4911 6.88902 37.2777 9.94979C39.0634 13.0106 39.9565 16.3536 39.9564 19.9784C39.9564 23.6028 39.0634 26.9457 37.2773 30.0068C35.4909 33.0676 33.0675 35.4917 30.0067 37.2777C26.9456 39.0641 23.6026 39.9572 19.978 39.9572C16.3534 39.9572 13.0107 39.0641 9.94946 37.2777C6.88841 35.491 4.46499 33.0676 2.67848 30.0068C0.892326 26.9454 -0.000976562 23.603 -0.000976562 19.9784C-0.000976562 16.354 0.892053 13.011 2.67875 9.94979C4.46536 6.88875 6.88877 4.46533 9.94982 2.67909C13.0107 0.892663 16.3536 -0.000366211 19.9783 -0.000366211C23.6034 -0.000366211 26.9454 0.892663 30.0068 2.67909ZM26.1095 22.6195L27.6848 21.1279C27.8805 20.9431 27.9782 20.7234 27.9782 20.47C27.9782 20.2169 27.8803 19.9976 27.6848 19.8121L20.6732 13.175C20.478 12.9897 20.246 12.8972 19.9783 12.8972C19.7106 12.8972 19.479 12.9897 19.2834 13.175L12.2718 19.8121C12.0761 19.9976 11.9782 20.217 11.9782 20.47C11.9782 20.7235 12.0761 20.9432 12.2718 21.1279L13.847 22.6195C14.0426 22.8045 14.2743 22.8972 14.5421 22.8972C14.8098 22.8972 15.0414 22.8045 15.237 22.6195L19.9781 18.1311L24.7196 22.6195C24.9149 22.8045 25.1469 22.8972 25.4145 22.8972C25.6821 22.8972 25.9136 22.8045 26.1095 22.6195Z" fill="#964E71"/>
</svg>
