<svg width="191" height="94" viewBox="0 0 191 94" fill="none" xmlns="http://www.w3.org/2000/svg">
<g clip-path="url(#clip0_55_376)">
<path d="M118.59 55.97C111.875 52.014 104.261 49.84 96.4701 49.6546C88.679 49.4691 80.9699 51.2782 74.0747 54.9102C67.1795 58.5421 61.3272 63.8763 57.0734 70.4063C52.8196 76.9362 50.3055 84.4452 49.77 92.22H56.85C57.5153 84.2215 60.6485 76.627 65.8167 70.4862C70.9848 64.3454 77.9325 59.9613 85.7 57.94C88.8849 57.1186 92.1608 56.702 95.45 56.7C104.007 56.7231 112.316 59.5818 119.075 64.829C125.835 70.0762 130.665 77.4158 132.81 85.7C133.36 87.8418 133.728 90.0262 133.91 92.23H140.99C140.8 89.4287 140.354 86.6505 139.66 83.9299C138.171 78.1077 135.543 72.6386 131.926 67.8392C128.309 63.0399 123.776 59.0057 118.59 55.97Z" stroke="#F9A139" stroke-width="2" stroke-miterlimit="10"/>
<path d="M126.39 42.7402C117.341 37.4228 107.075 34.5253 96.5808 34.3268C86.0869 34.1284 75.7186 36.6357 66.4749 41.6072C57.2311 46.5788 49.4234 53.8469 43.8038 62.7116C38.1843 71.5763 34.9422 81.7389 34.39 92.2202H41.48C42.1531 80.8072 46.4272 69.9013 53.688 61.0701C60.9488 52.2389 70.8225 45.9371 81.89 43.0701C86.3388 41.9198 90.9149 41.3352 95.51 41.3301C107.467 41.3633 119.077 45.3578 128.523 52.689C137.969 60.0203 144.72 70.2751 147.72 81.8502C148.6 85.2458 149.149 88.7186 149.36 92.2202H156.44C156.218 88.1211 155.589 84.0543 154.56 80.0801C152.57 72.3011 149.056 64.9947 144.22 58.5848C139.384 52.1749 133.324 46.7892 126.39 42.7402Z" stroke="#F9A139" stroke-width="2" stroke-miterlimit="10"/>
<path d="M134.5 28.9603C123.019 22.21 109.986 18.5472 96.6699 18.3283C83.3535 18.1094 70.2072 21.3418 58.5107 27.7111C46.8143 34.0804 36.9661 43.3694 29.9248 54.674C22.8835 65.9786 18.8889 78.9138 18.33 92.2203H25.41C26.1045 77.26 31.5699 62.9148 41.0061 51.2851C50.4423 39.6554 63.3537 31.3519 77.85 27.5903C83.6148 26.0984 89.5453 25.3424 95.5 25.3403C110.995 25.3799 126.04 30.5538 138.282 40.0529C150.524 49.552 159.273 62.8405 163.16 77.8403C164.376 82.5466 165.106 87.3651 165.34 92.2203H172.41C171.866 79.3513 168.113 66.8227 161.492 55.7742C154.871 44.7258 145.592 35.5082 134.5 28.9603Z" stroke="#F9A139" stroke-width="2" stroke-miterlimit="10"/>
<path d="M186.74 71.7501C181.05 49.783 167.636 30.6009 148.956 17.7174C130.276 4.8338 107.58 -0.88896 85.0242 1.59724C62.4686 4.08343 41.5637 14.6122 26.1382 31.2551C10.7126 47.8979 1.7991 69.5409 1.03003 92.22H8.09998C8.86096 71.2568 17.1432 51.2681 31.4316 35.9099C45.7201 20.5516 65.06 10.8504 85.9138 8.58051C106.768 6.31062 127.742 11.6237 145 23.5482C162.258 35.4726 174.647 53.2114 179.9 73.52C181.483 79.6369 182.405 85.9063 182.65 92.22H189.72C189.472 85.3088 188.473 78.445 186.74 71.7501Z" stroke="#F9A139" stroke-width="2" stroke-miterlimit="10"/>
<path d="M110.45 69.82C106.17 67.3028 101.327 65.8986 96.3641 65.7357C91.4013 65.5728 86.4768 66.6564 82.0408 68.8873C77.6047 71.1183 73.7985 74.4255 70.9701 78.5067C68.1417 82.5879 66.3814 87.313 65.85 92.25H72.98C73.7481 86.8453 76.4408 81.8992 80.5632 78.3206C84.6857 74.7419 89.961 72.771 95.42 72.7699C100.867 72.784 106.126 74.7613 110.233 78.3394C114.34 81.9174 117.02 86.8563 117.78 92.25H124.91C124.748 90.8072 124.487 89.3772 124.13 87.97C123.161 84.1913 121.453 80.6418 119.105 77.5266C116.757 74.4114 113.816 71.7921 110.45 69.82Z" stroke="#F9A139" stroke-width="2" stroke-miterlimit="10"/>
</g>
<defs>
<clipPath id="clip0_55_376">
<rect width="190.76" height="93.22" fill="white"/>
</clipPath>
</defs>
</svg>
