<svg width="22" height="21" viewBox="0 0 22 21" fill="none" xmlns="http://www.w3.org/2000/svg">
<path d="M9.78528 1.07444C10.2149 -0.247639 12.0852 -0.247642 12.5148 1.07444L14.0496 5.79817C14.2418 6.38942 14.7927 6.78973 15.4144 6.78973L20.3812 6.78973C21.7714 6.78973 22.3493 8.56858 21.2247 9.38567L17.2065 12.3051C16.7035 12.6705 16.4931 13.3182 16.6852 13.9095L18.22 18.6332C18.6496 19.9553 17.1364 21.0547 16.0118 20.2376L11.9935 17.3182C11.4906 16.9527 10.8095 16.9527 10.3066 17.3182L6.28834 20.2376C5.16371 21.0547 3.65053 19.9553 4.0801 18.6332L5.61493 13.9095C5.80704 13.3182 5.59658 12.6705 5.09363 12.3051L1.07539 9.38567C-0.0492358 8.56858 0.528744 6.78973 1.91886 6.78973L6.88568 6.78973C7.50736 6.78973 8.05834 6.38942 8.25045 5.79817L9.78528 1.07444Z" fill="#F9A139"/>
</svg>
