<svg width="37" height="38" viewBox="0 0 37 38" fill="none" xmlns="http://www.w3.org/2000/svg">
<path d="M17.923 3.85156C9.84791 3.85156 3.29419 10.4053 3.29419 18.4804C3.29419 26.5555 9.84791 33.1093 17.923 33.1093C25.9982 33.1093 32.5519 26.5555 32.5519 18.4804C32.5519 10.4053 25.9982 3.85156 17.923 3.85156ZM24.7108 13.7992C24.4914 16.1105 23.5405 21.728 23.0578 24.3173C22.853 25.4145 22.4434 25.7802 22.063 25.8241C21.2145 25.8972 20.5709 25.2682 19.7516 24.7269C18.4643 23.8785 17.7329 23.3518 16.4894 22.5326C15.0412 21.5817 15.9774 21.0551 16.8112 20.2066C17.0307 19.9872 20.7757 16.5787 20.8488 16.2715C20.859 16.2249 20.8576 16.1766 20.8449 16.1307C20.8321 16.0848 20.8084 16.0428 20.7757 16.0081C20.6879 15.935 20.5709 15.9643 20.4685 15.9789C20.3368 16.0081 18.2888 17.3686 14.2951 20.0603C13.7099 20.4553 13.1833 20.6601 12.7152 20.6455C12.1885 20.6309 11.1938 20.3529 10.4477 20.1042C9.52608 19.8116 8.80927 19.6507 8.86778 19.1387C8.89704 18.8754 9.26276 18.6121 9.95032 18.3341C14.2219 16.4763 17.0599 15.2474 18.4789 14.6623C22.5458 12.9653 23.3796 12.6728 23.9355 12.6728C24.0525 12.6728 24.3305 12.702 24.506 12.8483C24.6523 12.9653 24.6962 13.1263 24.7108 13.2433C24.6962 13.3311 24.7255 13.5944 24.7108 13.7992Z" fill="#23A0DD"/>
</svg>
