<svg width="31" height="31" viewBox="0 0 31 31" fill="none" xmlns="http://www.w3.org/2000/svg">
<path d="M25.6543 4.64862C25.3292 4.66296 25.0264 4.75764 24.7598 4.86542C24.51 4.96588 23.5558 5.37516 22.0527 6.01971C20.5484 6.66483 18.5565 7.52002 16.4316 8.43378C12.182 10.2613 7.40421 12.3184 4.95703 13.3713C4.86501 13.4109 4.54392 13.5134 4.20312 13.7795C3.86233 14.0455 3.5 14.5968 3.5 15.2111C3.5 15.7065 3.73607 16.1986 4.0332 16.4924C4.33034 16.7862 4.64475 16.9313 4.91406 17.0412C5.89123 17.4399 8.92185 18.6801 9.49414 18.9142C9.69555 19.5312 10.7925 22.8868 11.0469 23.7092C11.2146 24.2519 11.3742 24.5918 11.582 24.8615C11.6859 24.9964 11.8067 25.1146 11.9531 25.2072C12.0116 25.2442 12.0758 25.2728 12.1406 25.299L12.1445 25.301C12.1595 25.307 12.1723 25.3171 12.1875 25.3224C12.2161 25.3324 12.2352 25.3336 12.2734 25.342C12.4258 25.3912 12.5795 25.4221 12.7168 25.4221C13.302 25.4221 13.6602 25.0998 13.6602 25.0998L13.6816 25.0842L16.6914 22.4807L20.3418 25.9338C20.3932 26.0065 20.8725 26.6642 21.9297 26.6642C22.5574 26.6642 23.0553 26.3493 23.375 26.0139C23.6947 25.6784 23.8938 25.3261 23.9785 24.883V24.881C24.0577 24.4624 27.4219 7.19159 27.4219 7.19159L27.416 7.21503C27.5145 6.76551 27.5403 6.34689 27.4316 5.93378C27.323 5.52067 27.0366 5.12514 26.6816 4.91229C26.3267 4.6995 25.9794 4.63428 25.6543 4.64862ZM25.4668 6.73846C25.462 6.76765 25.4704 6.75297 25.4629 6.78729L25.4609 6.79901L25.459 6.81073C25.459 6.81073 22.1365 23.8606 22.0137 24.5099C22.0227 24.4609 21.9816 24.5584 21.9395 24.6174C21.8799 24.5763 21.7578 24.5236 21.7578 24.5236L21.7383 24.5021L16.752 19.7853L13.2266 22.8322L14.2754 18.633C14.2754 18.633 20.8316 11.8464 21.2266 11.4514C21.5446 11.1354 21.6113 11.0252 21.6113 10.9162C21.6113 10.7702 21.5352 10.6642 21.3652 10.6642C21.2122 10.6642 21.0065 10.813 20.8965 10.883C19.4634 11.7965 13.1718 15.4634 10.3516 17.1037C9.90338 16.9203 6.78966 15.6457 5.73438 15.215C5.74236 15.2115 5.73973 15.2128 5.74805 15.2092C8.19587 14.156 12.9716 12.0989 17.2207 10.2717C19.3452 9.35804 21.3387 8.5022 22.8418 7.8576C24.3218 7.22293 25.3501 6.78613 25.4668 6.73846Z" fill="#23A0DD"/>
</svg>
