<svg width="85" height="38" viewBox="0 0 85 38" fill="none" xmlns="http://www.w3.org/2000/svg">
<g clip-path="url(#clip0_55_368)">
<path d="M0 0.497212C2.87133 0.497212 4.36224 2.49007 5.67743 4.25203C6.93239 5.93366 8.11208 7.51992 10.4814 7.51992C12.8508 7.51992 14.0354 5.93366 15.2903 4.25203C16.6055 2.50513 18.0914 0.497212 20.9678 0.497212C23.8441 0.497212 25.33 2.49007 26.6452 4.25203C27.9001 5.93366 29.0849 7.51992 31.4542 7.51992C33.8236 7.51992 35.0081 5.93366 36.2631 4.25203C37.5783 2.50513 39.0692 0.497212 41.9405 0.497212C44.8119 0.497212 46.3028 2.49007 47.618 4.25203C48.8729 5.93366 50.0576 7.51992 52.427 7.51992C54.7963 7.51992 55.9809 5.93366 57.2359 4.25203C58.546 2.50513 60.0319 0.497212 62.9083 0.497212C65.7846 0.497212 67.2756 2.49007 68.5857 4.25203C69.8407 5.93366 71.0253 7.51992 73.3946 7.51992C75.764 7.51992 76.9487 5.93366 78.2036 4.25203C79.5188 2.49509 81.0097 0.502227 83.8811 0.492188M0 2.2441C2.36935 2.2441 3.55406 3.83538 4.80902 5.512C6.11919 7.27395 7.6101 9.27184 10.4814 9.27184C13.3528 9.27184 14.8487 7.26391 16.1589 5.512C17.4138 3.83538 18.5984 2.2441 20.9678 2.2441C23.3371 2.2441 24.5218 3.83538 25.7768 5.512C27.092 7.27395 28.5829 9.27184 31.4542 9.27184C34.3255 9.27184 35.8163 7.26391 37.1315 5.512C38.3865 3.83538 39.5712 2.2441 41.9405 2.2441C44.3099 2.2441 45.4946 3.83538 46.7495 5.512C48.0597 7.27395 49.5506 9.27184 52.427 9.27184C55.3033 9.27184 56.7891 7.26391 58.1043 5.512C59.3542 3.83538 60.544 2.2441 62.9083 2.2441C65.2726 2.2441 66.4624 3.83538 67.7173 5.512C69.0325 7.27395 70.5233 9.27184 73.3946 9.27184C76.2659 9.27184 77.7619 7.26391 79.0721 5.512C80.327 3.83538 81.5117 2.2441 83.8811 2.2441" stroke="#F9F9F9" stroke-width="1.00396" stroke-miterlimit="10"/>
<path d="M0 14.2915C2.87133 14.2915 4.36224 16.2844 5.67743 18.0463C6.93239 19.728 8.11208 21.3142 10.4814 21.3142C12.8508 21.3142 14.0354 19.728 15.2903 18.0463C16.6055 16.2994 18.0914 14.2915 20.9678 14.2915C23.8441 14.2915 25.33 16.2844 26.6452 18.0463C27.9001 19.728 29.0849 21.3142 31.4542 21.3142C33.8236 21.3142 35.0081 19.728 36.2631 18.0463C37.5783 16.2994 39.0692 14.2915 41.9405 14.2915C44.8119 14.2915 46.3028 16.2844 47.618 18.0463C48.8729 19.728 50.0576 21.3142 52.427 21.3142C54.7963 21.3142 55.9809 19.728 57.2359 18.0463C58.546 16.2994 60.0219 14.2915 62.9083 14.2915C65.7947 14.2915 67.3007 16.2994 68.5857 18.0513C69.8407 19.733 71.0253 21.3192 73.3946 21.3192C75.764 21.3192 76.9487 19.733 78.2036 18.0513C79.5188 16.2994 81.0097 14.2915 83.8811 14.2915M0 16.0484C2.36935 16.0484 3.55406 17.6347 4.80902 19.3163C6.06397 20.998 7.6101 23.0712 10.4814 23.0712C13.3528 23.0712 14.8487 21.0632 16.1589 19.3163C17.469 17.5694 18.5984 16.0484 20.9678 16.0484C23.3371 16.0484 24.5218 17.6347 25.7768 19.3163C27.0317 20.998 28.5829 23.0712 31.4542 23.0712C34.3255 23.0712 35.8163 21.0632 37.1315 19.3163C38.4467 17.5694 39.5712 16.0484 41.9405 16.0484C44.3099 16.0484 45.4946 17.6347 46.7495 19.3163C48.0045 20.998 49.5506 23.0712 52.427 23.0712C55.3033 23.0712 56.7891 21.0632 58.1043 19.3163C59.4195 17.5694 60.544 16.0484 62.9083 16.0484C65.2726 16.0484 66.4624 17.6347 67.7173 19.3163C68.9723 20.998 70.5233 23.0712 73.3946 23.0712C76.2659 23.0712 77.7619 21.0632 79.0721 19.3163C80.3822 17.5694 81.5117 16.0484 83.8811 16.0484" stroke="#F9F9F9" stroke-width="1.00396" stroke-miterlimit="10"/>
<path d="M0 28.1057C2.87133 28.1057 4.36224 30.1036 5.67743 31.8606C6.93239 33.5422 8.11208 35.1285 10.4814 35.1285C12.8508 35.1285 14.0354 33.5422 15.2903 31.8606C16.6055 30.1137 18.0914 28.1057 20.9678 28.1057C23.8441 28.1057 25.33 30.1036 26.6452 31.8606C27.9001 33.5422 29.0849 35.1285 31.4542 35.1285C33.8236 35.1285 35.0081 33.5422 36.2631 31.8606C37.5783 30.1137 39.0692 28.1057 41.9405 28.1057C44.8119 28.1057 46.3028 30.1036 47.618 31.8606C48.8729 33.5422 50.0576 35.1285 52.427 35.1285C54.7963 35.1285 55.9809 33.5422 57.2359 31.8606C58.546 30.1137 60.0319 28.1057 62.9083 28.1057C65.7846 28.1057 67.2756 30.1036 68.5857 31.8606C69.8407 33.5422 71.0253 35.1285 73.3946 35.1285C75.764 35.1285 76.9487 33.5422 78.2036 31.8606C79.5188 30.0886 81.0097 28.0907 83.8811 28.0957M0 29.8526C2.36935 29.8526 3.55406 31.4389 4.80902 33.1205C6.11919 34.8825 7.6101 36.8754 10.4814 36.8754C13.3528 36.8754 14.8487 34.8674 16.1589 33.1205C17.469 31.3737 18.6084 29.8526 20.9678 29.8526C23.3271 29.8526 24.5218 31.4389 25.7768 33.1205C27.092 34.8825 28.5829 36.8754 31.4542 36.8754C34.3255 36.8754 35.8163 34.8674 37.1315 33.1205C38.4467 31.3737 39.5712 29.8526 41.9405 29.8526C44.3099 29.8526 45.4946 31.4389 46.7495 33.1205C48.0045 34.8022 49.5506 36.8754 52.427 36.8754C55.3033 36.8754 56.7891 34.8674 58.1043 33.1205C59.4195 31.3737 60.544 29.8526 62.9083 29.8526C65.2726 29.8526 66.4624 31.4389 67.7173 33.1205C69.0325 34.8825 70.5233 36.8754 73.3946 36.8754C76.2659 36.8754 77.7619 34.8674 79.0721 33.1205C80.327 31.4389 81.5117 29.8526 83.8811 29.8526" stroke="#F9F9F9" stroke-width="1.00396" stroke-miterlimit="10"/>
</g>
<defs>
<clipPath id="clip0_55_368">
<rect width="84.89" height="37.3725" fill="white"/>
</clipPath>
</defs>
</svg>
