<svg width="27" height="31" viewBox="0 0 27 31" fill="none" xmlns="http://www.w3.org/2000/svg">
<g clip-path="url(#clip0_34_1252)">
<path d="M22.8236 6.56323C20.3685 4.10229 17.099 2.74878 13.6244 2.74878C6.45251 2.74878 0.616577 8.58472 0.616577 15.7566C0.616577 18.0476 1.21423 20.2859 2.35095 22.2605L0.505249 28.9988L7.40173 27.1882C9.30017 28.2253 11.4388 28.7703 13.6185 28.7703H13.6244C20.7904 28.7703 26.7552 22.9343 26.7552 15.7625C26.7552 12.2878 25.2787 9.02417 22.8236 6.56323ZM13.6244 26.5789C11.6791 26.5789 9.77478 26.0574 8.11658 25.073L7.724 24.8386L3.63416 25.9109L4.724 21.9207L4.46619 21.5105C3.3822 19.7878 2.81384 17.8015 2.81384 15.7566C2.81384 9.79761 7.66541 4.94604 13.6302 4.94604C16.5189 4.94604 19.2318 6.07104 21.2709 8.11597C23.3099 10.1609 24.5638 12.8738 24.558 15.7625C24.558 21.7273 19.5834 26.5789 13.6244 26.5789ZM19.5541 18.4812C19.2318 18.3171 17.6322 17.532 17.3334 17.4265C17.0345 17.3152 16.8177 17.2625 16.601 17.5906C16.3842 17.9187 15.7631 18.6453 15.5697 18.8679C15.3822 19.0847 15.1888 19.114 14.8666 18.95C12.9564 17.9949 11.7025 17.2449 10.4427 15.0828C10.1088 14.5085 10.7767 14.5496 11.3978 13.3074C11.5033 13.0906 11.4506 12.9031 11.3685 12.739C11.2865 12.575 10.6361 10.9753 10.3666 10.325C10.1029 9.69214 9.83337 9.78003 9.63416 9.76831C9.44666 9.75659 9.22986 9.75659 9.01306 9.75659C8.79626 9.75659 8.4447 9.83862 8.14587 10.1609C7.84705 10.489 7.00916 11.2742 7.00916 12.8738C7.00916 14.4734 8.17517 16.0203 8.33337 16.2371C8.49744 16.4539 10.6244 19.7351 13.8881 21.1472C15.9506 22.0378 16.7592 22.114 17.7904 21.9617C18.4174 21.8679 19.7123 21.1765 19.9818 20.4148C20.2513 19.6531 20.2513 19.0027 20.1693 18.8679C20.0931 18.7214 19.8763 18.6394 19.5541 18.4812Z" fill="#7AD06D"/>
</g>
<defs>
<clipPath id="clip0_34_1252">
<rect width="26.25" height="30" fill="white" transform="translate(0.505371 0.874023)"/>
</clipPath>
</defs>
</svg>
