<svg width="36" height="36" viewBox="0 0 36 36" fill="none" xmlns="http://www.w3.org/2000/svg">
<path d="M17.5561 3.54443C25.6356 3.54443 32.1849 10.0938 32.1849 18.1733C32.1849 26.2528 25.6356 32.8021 17.5561 32.8021C14.9708 32.8063 12.4311 32.1221 10.1977 30.8199L2.93306 32.8021L4.91088 25.5345C3.60758 23.3005 2.92289 20.7597 2.92721 18.1733C2.92721 10.0938 9.47654 3.54443 17.5561 3.54443ZM12.5705 11.2977L12.278 11.3094C12.0886 11.321 11.9034 11.3707 11.7338 11.4557C11.5751 11.5456 11.4302 11.6579 11.3037 11.7893C11.1281 11.9546 11.0287 12.0979 10.9219 12.2369C10.3808 12.9404 10.0895 13.8041 10.0939 14.6916C10.0968 15.4084 10.2841 16.1062 10.5766 16.7587C11.175 18.0782 12.1595 19.4753 13.4585 20.7699C13.7716 21.0815 14.0788 21.3946 14.4094 21.6857C16.0235 23.1068 17.947 24.1317 20.0269 24.6787L20.8578 24.806C21.1284 24.8206 21.3991 24.8002 21.6712 24.787C22.0972 24.765 22.5132 24.6496 22.8897 24.4491C23.0813 24.3504 23.2683 24.243 23.45 24.1272C23.45 24.1272 23.5129 24.0863 23.6329 23.9956C23.8304 23.8493 23.9518 23.7454 24.1156 23.5743C24.2371 23.4485 24.3424 23.3007 24.4228 23.1325C24.5369 22.894 24.651 22.4391 24.6979 22.0602C24.733 21.7705 24.7227 21.6125 24.7183 21.5145C24.7125 21.358 24.5823 21.1956 24.4404 21.1269L23.589 20.745C23.589 20.745 22.3163 20.1906 21.538 19.8366C21.4566 19.801 21.3693 19.7807 21.2806 19.7766C21.1805 19.7663 21.0793 19.7776 20.984 19.8096C20.8886 19.8417 20.8012 19.8938 20.7276 19.9624C20.7203 19.9595 20.6223 20.0429 19.5646 21.3243C19.5039 21.4059 19.4203 21.4676 19.3244 21.5014C19.2285 21.5353 19.1247 21.5399 19.0263 21.5145C18.931 21.489 18.8376 21.4567 18.7468 21.418C18.5654 21.3419 18.5025 21.3126 18.3782 21.26C17.5386 20.8936 16.7613 20.3986 16.0742 19.7927C15.8898 19.6318 15.7187 19.4562 15.5431 19.2865C14.9676 18.7354 14.466 18.1119 14.051 17.4316L13.9647 17.2926C13.9027 17.1992 13.8526 17.0985 13.8155 16.9927C13.7599 16.7777 13.9047 16.6051 13.9047 16.6051C13.9047 16.6051 14.2602 16.2159 14.4255 16.0053C14.5864 15.8005 14.7224 15.6015 14.8102 15.4596C14.9828 15.1817 15.037 14.8964 14.9463 14.6755C14.5367 13.6749 14.1124 12.6787 13.6765 11.6898C13.5902 11.4938 13.3342 11.3533 13.1016 11.3255C13.0226 11.3167 12.9436 11.308 12.8646 11.3021C12.6681 11.2924 12.4713 11.2943 12.275 11.308L12.5691 11.2963L12.5705 11.2977Z" fill="#23A0DD"/>
</svg>
